<svg fill="#000000" viewBox="-8.96 -8.96 81.92 81.92" xmlns="http://www.w3.org/2000/svg" stroke="#000000" stroke-width="0.44800000000000006"><g id="SVGRepo_bgCarrier" stroke-width="0"></g><g id="SVGRepo_tracerCarrier" stroke-linecap="round" stroke-linejoin="round"></g><g id="SVGRepo_iconCarrier"> <g id="a"></g> <g id="b"></g> <g id="c"></g> <g id="d"></g> <g id="e"></g> <g id="f"></g> <g id="g"></g> <g id="h"></g> <g id="i"></g> <g id="j"></g> <g id="k"> <path d="M50.51,11.11c-.55-.78-1.46-1.25-2.42-1.25H16.37c-.95,0-1.85,.46-2.42,1.22L4.43,23.94c-.64,.87-.56,2.06,.19,2.83l25.95,26.77c.74,.76,1.97,.85,2.85,0l25.95-26.77c.74-.77,.84-1.96,.22-2.83l-9.08-12.83Zm-10.44,15.24l-8.05,24-7.61-24h15.66Zm-15.21-2l7.37-11.62,7.4,11.62h-14.77Zm9.19-12.49h13.39l-6.07,11.5-7.32-11.5Zm-10.93,11.5l-6.1-11.5h13.39l-7.29,11.5Zm6.64,26.47L6.99,26.35h15.32l7.45,23.48Zm12.42-23.48h14.82l-22.67,23.4,7.85-23.4Zm.94-2l6.11-11.58,8.2,11.58h-14.31ZM15.22,12.73l6.17,11.62H6.62L15.22,12.73Z"></path> </g> <g id="l"></g> <g id="m"></g> <g id="n"></g> <g id="o"></g> <g id="p"></g> <g id="q"></g> <g id="r"></g> <g id="s"></g> <g id="t"></g> <g id="u"></g> <g id="v"></g> <g id="w"></g> <g id="x"></g> <g id="y"></g> <g id="a`"></g> <g id="aa"></g> <g id="ab"></g> <g id="ac"></g> <g id="ad"></g> <g id="ae"></g> <g id="af"></g> <g id="ag"></g> <g id="ah"></g> <g id="ai"></g> <g id="aj"></g> <g id="ak"></g> <g id="al"></g> <g id="am"></g> <g id="an"></g> <g id="ao"></g> <g id="ap"></g> <g id="aq"></g> <g id="ar"></g> <g id="as"></g> <g id="at"></g> <g id="au"></g> <g id="av"></g> <g id="aw"></g> <g id="ax"></g> </g></svg>